<svg xmlns="http://www.w3.org/2000/svg" viewBox="0 0 192 192" fill="none" stroke-linecap="round" stroke-linejoin="round"><g transform="translate(9 6)"><path d="M26 156l30 -9 18 9m39 -12 29 -9 20 10" stroke="#94a3b8" stroke-width="3.5"/><path d="M40 151V43l87 -23v125M62 149V52l86 -23v112M40 43l22 9m65 -32 21 9M40 95l22 9m65 -32 21 9" stroke="#38bdf8" stroke-width="3.5"/><path d="M44 58l87 -23" stroke="#94a3b8" stroke-width="3.5"/><path d="M43 78l91 -25" stroke="#94a3b8" stroke-width="5"/><ellipse cx="55" cy="75" rx="9" ry="23" stroke="#fb923c" stroke-width="3.5"/><ellipse cx="126" cy="55" rx="9" ry="23" stroke="#fb923c" stroke-width="3.5"/><path d="M41 123l40 -10m46 -11 21 -6" stroke="#fb923c" stroke-width="3.5"/></g></svg>