<svg xmlns="http://www.w3.org/2000/svg" viewBox="0 0 256 256" fill="none" stroke-linecap="round" stroke-linejoin="round"><path d="M45 215h164M172 187l-4 -103m-87 0-8 104" stroke="#38bdf8" stroke-width="5" opacity="0.55"/><circle cx="176" cy="177" r="26" stroke="#38bdf8" stroke-width="5"/><circle cx="128" cy="47" r="13" fill="#38bdf8" fill-opacity=".16" stroke="#38bdf8" stroke-width="5"/><path d="M125 73l-5 60" stroke="#38bdf8" stroke-width="14" opacity="1"/><path d="M120 133l-32 36 4 30m28 -66 38 23 8 34M124 90l-39 9-5 -34m46 28 40 8 8 -33" stroke="#38bdf8" stroke-width="14" opacity="1"/><path d="M88 169l4 30m66 -43 8 34" stroke="#fb923c" stroke-width="9" opacity="1"/><path d="M78 200h32m45 -9h31M73 65h13m83 3h12" stroke="#fb923c" stroke-width="7" opacity="1"/></svg>